HIERARCHY
ROOT Hips
{
	OFFSET 0.00000 0.00000 0.00000
	CHANNELS 6 Xposition Yposition Zposition Zrotation Yrotation Xrotation 
	JOINT LHipJoint
	{
		OFFSET 0 0 0
		CHANNELS 3 Zrotation Yrotation Xrotation
		JOINT LeftHip
		{
			OFFSET 1.54859 -1.61379 0.86856
			CHANNELS 3 Zrotation Yrotation Xrotation
			JOINT LeftKnee
			{
				OFFSET 2.25087 -6.18423 0.00000
				CHANNELS 3 Zrotation Yrotation Xrotation
				JOINT LeftAnkle
				{
					OFFSET 2.40328 -6.60297 0.00000
					CHANNELS 3 Zrotation Yrotation Xrotation
					JOINT LeftToe
					{
						OFFSET 0.17435 -0.47901 2.02453
						CHANNELS 3 Zrotation Yrotation Xrotation
						End Site
						{
							OFFSET 0.00000 -0.00000 1.04844
						}
					}
				}
			}
		}
	}
	JOINT RHipJoint
	{
		OFFSET 0 0 0
		CHANNELS 3 Zrotation Yrotation Xrotation
		JOINT RightHip
		{
			OFFSET -1.54669 -1.61379 0.86856
			CHANNELS 3 Zrotation Yrotation Xrotation
			JOINT RightKnee
			{
				OFFSET -2.28132 -6.26789 0.00000
				CHANNELS 3 Zrotation Yrotation Xrotation
				JOINT RightAnkle
				{
					OFFSET -2.51636 -6.91365 0.00000
					CHANNELS 3 Zrotation Yrotation Xrotation
					JOINT RightToe
					{
						OFFSET -0.15124 -0.41552 2.21090
						CHANNELS 3 Zrotation Yrotation Xrotation
						End Site
						{
							OFFSET -0.00000 -0.00000 1.13399
						}
					}
				}
			}
		}
	}
	JOINT lowerback
	{
		OFFSET 0 0 0
		CHANNELS 3 Zrotation Yrotation Xrotation
		JOINT Chest
		{
			OFFSET -0.04287 2.26161 -0.25690
			CHANNELS 3 Zrotation Yrotation Xrotation
			JOINT Chest2
			{
				OFFSET 0.02248 2.28395 -0.10140
				CHANNELS 3 Zrotation Yrotation Xrotation
				JOINT lowerneck
				{
					OFFSET 0 0 0
					CHANNELS 3 Zrotation Yrotation Xrotation
					JOINT Neck
					{
						OFFSET -0.11644 1.38496 0.11345
						CHANNELS 3 Zrotation Yrotation Xrotation
						JOINT Head
						{
							OFFSET 0.29383 1.36600 0.06642
							CHANNELS 3 Zrotation Yrotation Xrotation
							End Site
							{
								OFFSET 0.11075 1.41395 -0.00294
							}
						}
					}
				}
				JOINT LeftCollar
				{
					OFFSET 0 0 0
					CHANNELS 3 Zrotation Yrotation Xrotation
					JOINT LeftShoulder
					{
						OFFSET 3.51628 0.59542 -0.30346
CHANNELS 3 Zrotation Xrotation Yrotation
						JOINT LeftElbow
						{
OFFSET 0 -4.764050 0.000000
CHANNELS 3 Zrotation Xrotation Yrotation
							JOINT LeftWrist
							{
OFFSET 0 -3.137590 -0.000000
CHANNELS 3 Zrotation Xrotation Yrotation
								JOINT lhand
								{
									OFFSET 0 0 0
CHANNELS 3 Zrotation Xrotation Yrotation
									JOINT LFingers
									{
OFFSET 0 -0.732260 -0.000000
CHANNELS 3 Zrotation Xrotation Yrotation
										End Site
										{
OFFSET 0 -0.590370 -0.000000
										}
									}
								}
								JOINT LThumb
								{
OFFSET 0 0.000000 0.000000
CHANNELS 3 Zrotation Xrotation Yrotation
									End Site
									{
OFFSET 0 -0.599380 0.599380
									}
								}
							}
						}
					}
				}
				JOINT RightCollar
				{
					OFFSET 0 0 0
					CHANNELS 3 Zrotation Yrotation Xrotation
					JOINT RightShoulder
					{
						OFFSET -3.30990 0.84213 -0.36430
CHANNELS 3 Zrotation Xrotation Yrotation
						JOINT RightElbow
						{
OFFSET 0 -5.101610 -0.000000
CHANNELS 3 Zrotation Xrotation Yrotation
							JOINT RightWrist
							{
OFFSET 0 -3.232670 -0.000000
CHANNELS 3 Zrotation Xrotation Yrotation
								JOINT rhand
								{
									OFFSET 0 0 0
CHANNELS 3 Zrotation Xrotation Yrotation
									JOINT RFingers
									{
OFFSET 0 -0.702000 -0.000000
CHANNELS 3 Zrotation Xrotation Yrotation
										End Site
										{
OFFSET 0 -0.565970 -0.000000
										}
									}
								}
								JOINT RThumb
								{
OFFSET 0 0.000000 0.000000
CHANNELS 3 Zrotation Xrotation Yrotation
									End Site
									{
OFFSET 0 -0.574610 0.574610
									}
								}
							}
						}
					}
				}
			}
		}
	}
}
MOTION
Frames: 13
Frame Time: .0083333
4.1094 15.5790 8.2637 21.1785 54.3953 19.5204 0.0000 0.0000 0.0000 -20.3229 4.7984 -3.5934 4.6177 12.9399 39.1440 -0.3561 -10.5193 4.4102 5.0888 -13.4831 -41.2050 0.0000 0.0000 0.0000 15.8490 1.8694 -39.1377 -19.1019 -19.9806 87.3732 -0.4445 -4.8467 -15.3088 -0.2274 3.0697 -8.4730 -7.9867 4.2936 11.4110 -0.8262 5.2544 8.2362 3.0629 2.4568 1.7039 -14.6428 -8.4276 1.3229 21.5642 -9.7628 -14.0241 9.2996 -5.1347 -2.2885 -0.0000 -0.0000 0.0000 13.5889 7.5238 7.6605 98.3719 -59.7335 67.2438 -0.3318 -38.5726 -30.656 0.0 0.0 0.0 -7.1250 0.0 0.0 -34.5774 57.0757 11.1305 -0.0000 -0.0000 0.0000 -9.727 3.1842 3.3021 -25.7539 -36.9646 -8.7392 -53.8317 -44.1043 -42.6798 0.0 0.0 0.0 7.1250 0.0 -0.0 -7.5275 -27.018 -10.1835
4.5843 15.6538 8.6249 21.7581 54.4382 19.7865 0.0000 0.0000 0.0000 -20.1202 5.5093 -0.7572 4.1305 12.3320 36.9168 -0.1577 -8.8855 9.0520 4.4389 -12.7227 -38.3390 0.0000 0.0000 0.0000 15.1057 1.3151 -40.3757 -17.9605 -19.9000 84.0274 -0.4424 -4.8200 -15.2616 -0.3677 3.8951 -10.7816 -8.2016 4.0877 11.2020 -0.8051 4.9820 8.1973 3.2487 2.3081 1.7897 -14.4093 -8.3514 0.9921 21.3058 -9.7074 -13.4195 9.1306 -5.0841 -2.1029 0.0000 0.0000 0.0000 15.24 8.5992 8.048 93.7073 -59.948 63.2101 -3.6443 -40.0279 -31.0276 0.0 0.0 0.0 -7.1250 0.0 0.0 -38.0148 56.6869 12.0898 0.0000 0.0000 0.0000 -9.7678 3.9943 2.964 -26.1649 -37.3711 -8.9876 -53.8024 -43.8224 -42.2497 0.0 0.0 0.0 7.1250 0.0 -0.0 -7.7082 -26.5886 -10.406
5.0645 15.7263 8.9902 22.0529 54.6195 19.9166 0.0000 0.0000 0.0000 -19.6789 5.9763 2.0631 3.6406 11.6662 34.5611 0.1735 -6.9845 13.3082 3.7075 -11.7606 -34.8903 0.0000 0.0000 0.0000 14.6160 0.7818 -41.4452 -16.6986 -19.7367 80.3065 -0.4409 -4.6507 -15.1162 -0.4292 4.2046 -11.6529 -8.2810 3.7776 10.8724 -0.6447 4.5856 8.0889 3.5228 2.0980 1.8794 -15.1702 -7.7085 1.2016 21.3138 -9.0091 -12.4973 9.2705 -4.7073 -1.9661 0.0000 -0.0000 0.0000 16.57 9.8484 8.317 89.0299 -59.9964 59.1599 -6.0274 -42.4385 -31.4392 0.0 0.0 0.0 -7.1250 0.0 0.0 -40.5852 56.5166 12.93 0.0000 -0.0000 0.0000 -10.1523 4.8536 3.2157 -26.5724 -37.7684 -9.236 -54.0036 -44.0914 -41.9323 0.0 0.0 0.0 7.1250 0.0 -0.0 -7.9414 -26.3987 -10.7132
5.5558 15.7961 9.3564 22.1615 54.8021 19.8927 0.0000 0.0000 0.0000 -19.1635 6.2883 4.9907 3.2036 11.0176 32.3394 0.4606 -5.4230 15.9554 3.2754 -11.1281 -32.7130 0.0000 0.0000 0.0000 14.2129 0.2974 -42.1726 -15.3161 -19.4657 76.1870 -0.4512 -4.1145 -14.8685 -0.3235 3.6561 -10.1111 -8.0101 3.4900 10.3856 -0.6094 4.2682 8.0417 3.4724 1.9373 2.1407 -15.5674 -7.4862 0.5008 21.8538 -8.7587 -11.2108 9.4457 -4.5354 -1.4717 -0.0000 0.0000 0.0000 18.1188 10.7617 8.3492 84.2428 -59.8744 55.0162 -7.0125 -45.3783 -32.2755 0.0 0.0 0.0 -7.1250 0.0 0.0 -42.2772 56.9535 14.087 -0.0000 0.0000 0.0000 -10.3273 5.5971 3.6256 -27.0476 -38.2246 -9.5286 -54.0154 -44.5027 -41.6869 0.0 0.0 0.0 7.1250 0.0 -0.0 -8.0557 -26.1677 -10.8551
6.0501 15.8687 9.7203 22.1741 54.9639 19.8109 0.0000 0.0000 0.0000 -18.6734 6.5112 8.0017 2.8205 10.3987 30.2777 0.5629 -4.6045 16.6008 3.2135 -11.0329 -32.3909 0.0000 0.0000 0.0000 14.0576 -0.4222 -42.8674 -13.8760 -19.0760 71.8256 -0.3914 -4.3798 -14.2471 -0.8421 5.8533 -16.3593 -7.6035 3.2286 9.8374 -0.6265 3.9997 8.0170 3.2866 1.8060 2.4629 -15.0521 -7.3009 0.1267 20.7049 -8.6240 -10.4162 8.9337 -4.4240 -1.3132 0.0000 -0.0000 0.0000 19.6341 11.3284 8.517 79.5803 -59.5858 50.9888 -5.08 -46.9541 -32.4306 0.0 0.0 0.0 -7.1250 0.0 0.0 -40.6595 57.4856 13.9585 0.0000 -0.0000 0.0000 -10.3712 6.1882 4.1901 -27.7039 -38.8423 -9.9375 -53.9983 -44.9239 -41.0293 0.0 0.0 0.0 7.1250 0.0 -0.0 -8.3363 -25.5152 -11.1956
6.5398 15.9237 10.0782 21.8243 55.1595 19.4889 0.0000 0.0000 0.0000 -18.0571 6.7033 10.9158 2.5190 9.8724 28.5644 0.5119 -4.3889 15.8358 4.5008 -12.7985 -38.6188 0.0000 0.0000 0.0000 13.9282 -0.6517 -43.0691 -12.3809 -18.5471 67.1912 -0.4407 -3.4118 -14.2584 -0.5610 4.7976 -13.3321 -7.0935 2.8872 9.1395 -0.4794 3.6366 8.0270 3.2259 1.6226 2.9056 -15.7013 -6.9942 0.1735 21.6449 -8.1994 -10.1424 9.3754 -4.2158 -1.2311 -0.0000 0.0000 0.0000 20.5363 11.7926 9.3834 75.2782 -59.165 47.2863 -5.8465 -49.4685 -32.9645 0.0 0.0 0.0 -7.1250 0.0 0.0 -41.8923 57.7297 14.7466 -0.0000 0.0000 0.0000 -10.7526 6.6622 5.2454 -28.5927 -39.6562 -10.4998 -54.0873 -45.9318 -40.1555 0.0 0.0 0.0 7.1250 0.0 -0.0 -8.7529 -24.7026 -11.7056
7.0330 16.0015 10.4443 21.2949 55.3042 19.0830 0.0000 0.0000 0.0000 -17.3481 7.2668 13.7040 2.2632 9.3941 27.0361 0.4759 2.7249 12.3800 5.3146 -13.7296 -42.1647 0.0000 0.0000 0.0000 13.8073 -0.6930 -43.2733 -10.9426 -17.9069 62.5952 -0.4822 -2.4063 -14.2154 -0.2263 3.0618 -8.4508 -6.5812 2.5935 8.9782 -0.2679 3.2351 7.4543 3.1834 1.4532 2.4318 -15.7497 -6.6277 1.0267 21.0426 -7.9427 -9.4587 9.2082 -4.1103 -1.2727 -0.0000 0.0000 0.0000 21.1719 13.1112 10.4202 71.3801 -58.6486 43.9478 -9.3243 -53.2114 -33.2527 0.0 0.0 0.0 -7.1250 0.0 0.0 -45.3346 57.1907 15.6913 -0.0000 0.0000 0.0000 -11.3723 8.2609 6.8284 -29.8804 -40.7907 -11.3314 -53.8836 -47.2281 -39.681 0.0 0.0 0.0 7.1250 0.0 -0.0 -8.8574 -24.1071 -11.8029
7.5188 16.0497 10.8083 21.0456 55.3052 19.0444 0.0000 0.0000 0.0000 -16.6525 8.2657 16.1099 2.0511 8.9717 25.7067 0.0901 10.4403 8.6819 5.0678 -13.4598 -41.1149 0.0000 0.0000 0.0000 13.5570 -0.6614 -43.5138 -9.5400 -17.1429 57.9395 -0.4565 -2.3039 -13.8117 -0.2763 3.3812 -9.3420 -5.7200 2.6357 8.3634 -0.6194 3.3817 7.3413 2.3540 1.5609 2.6890 -14.1593 -7.2852 -0.1763 20.3451 -8.7633 -8.8258 8.5865 -4.4764 -0.8549 -0.0000 -0.0000 0.0000 22.9313 12.8847 10.9165 67.5332 -58.0041 40.6735 -11.3794 -56.7855 -35.214 0.0 0.0 0.0 -7.1250 0.0 0.0 -49.2575 58.1422 18.7277 -0.0000 -0.0000 0.0000 -10.6988 9.0835 7.056 -31.3244 -42.0019 -12.2864 -53.4521 -47.981 -39.5666 0.0 0.0 0.0 7.1250 0.0 -0.0 -8.7017 -23.7388 -11.5642
8.0000 16.0905 11.1782 21.1723 55.2144 19.3726 0.0000 0.0000 0.0000 -16.0157 9.2934 18.3383 1.8367 8.5173 24.2966 -0.5450 16.4296 4.7898 3.6132 -11.6271 -34.4251 0.0000 0.0000 0.0000 13.0093 -0.4260 -43.6622 -8.2229 -16.2807 53.3615 -0.3947 -2.6741 -13.1519 -0.3671 3.8917 -10.7722 -5.9594 2.3560 7.5958 -0.3230 3.0164 7.0219 2.8438 1.3550 2.7790 -14.4961 -7.3629 -0.6725 20.4313 -8.9028 -8.1909 8.6235 -4.5050 -0.5447 -0.0000 0.0000 0.0000 22.5615 14.0075 12.393 65.5086 -57.6075 38.9602 -12.924 -60.6455 -36.2331 0.0 0.0 0.0 -7.1250 0.0 0.0 -51.7741 58.4872 20.5002 -0.0000 0.0000 0.0000 -11.8734 9.9685 8.7331 -32.6161 -43.0329 -13.1593 -53.0881 -48.5749 -39.5915 0.0 0.0 0.0 7.1250 0.0 -0.0 -8.5199 -23.5527 -11.3046
8.4805 16.1232 11.5518 21.5112 55.0324 19.8241 0.0000 0.0000 0.0000 -15.4527 10.1508 20.5181 1.6497 8.0949 23.0026 -0.8480 18.7141 3.4027 2.4268 -9.7035 -28.0219 0.0000 0.0000 0.0000 12.2349 -0.0157 -43.5670 -7.0016 -15.3332 48.8804 -0.3119 -3.2717 -12.2710 -0.5659 4.8181 -13.3906 -6.2628 2.2079 6.8506 -0.2427 2.8423 6.8539 3.1324 1.2445 3.0158 -14.8592 -7.1073 -0.4017 20.4691 -8.6103 -8.0379 8.7221 -4.3631 -0.5808 0.0000 0.0000 0.0000 22.4562 14.7922 13.5111 64.2592 -57.342 37.9068 -12.9474 -63.6471 -36.763 0.0 0.0 0.0 -7.1250 0.0 0.0 -52.4209 58.8368 21.3132 0.0000 0.0000 0.0000 -12.6038 10.382 10.0481 -33.7300 -43.8837 -13.9256 -53.0971 -48.9788 -39.5499 0.0 0.0 0.0 7.1250 0.0 -0.0 -8.5413 -23.5157 -11.3307
8.9555 16.1425 11.9266 22.1526 54.7590 20.4563 0.0000 0.0000 0.0000 -15.0813 10.8758 22.6703 1.4969 7.7283 21.8920 -0.7665 18.6798 4.6251 2.3689 -9.5955 -27.6764 0.0000 0.0000 0.0000 11.2052 0.4282 -43.3054 -5.8976 -14.3283 44.5692 -0.2315 -3.6701 -11.2013 -0.8852 5.9975 -16.7772 -6.6954 2.1497 6.1586 -0.3255 2.7970 6.7874 3.3155 1.1946 3.3252 -15.0075 -6.8188 -0.2266 19.9625 -8.3215 -7.5926 8.5913 -4.2106 -0.5627 0.0000 -0.0000 0.0000 22.3827 15.3913 14.3363 63.9018 -57.2631 37.606 -12.6376 -65.6661 -37.5941 0.0 0.0 0.0 -7.1250 0.0 0.0 -53.1642 59.4601 22.5516 0.0000 -0.0000 0.0000 -13.0491 10.6289 11.3347 -35.0080 -44.8178 -14.819 -53.3705 -49.3824 -39.3345 0.0 0.0 0.0 7.1250 0.0 -0.0 -8.7589 -23.4564 -11.6197
9.4207 16.1469 12.3025 23.0933 54.4331 21.2504 0.0000 0.0000 0.0000 -14.9158 11.4775 24.6115 1.4108 7.5126 21.2431 -0.5266 17.1633 6.0233 2.8401 -10.4316 -30.3860 0.0000 0.0000 0.0000 9.8973 0.9397 -42.9247 -4.9377 -13.3133 40.5528 -0.1411 -4.2678 -9.9531 -1.2085 6.9741 -19.6388 -7.2280 2.1781 5.5690 -0.5833 2.8759 6.7932 3.3647 1.2062 3.6485 -14.0501 -7.3107 -1.1789 19.6763 -8.9104 -7.3203 8.2542 -4.4684 -0.2828 0.0000 -0.0000 0.0000 22.4589 15.7135 14.7976 64.1360 -57.315 37.8031 -12.9404 -66.8322 -38.3751 0.0 0.0 0.0 -7.1250 0.0 0.0 -54.4112 59.8932 23.8639 0.0000 -0.0000 0.0000 -13.1592 10.8157 12.4101 -36.4402 -45.8136 -15.8373 -53.7638 -49.8154 -39.1765 0.0 0.0 0.0 7.1250 0.0 -0.0 -9.0099 -23.5265 -11.9642
9.8732 16.1353 12.6802 24.0242 53.9786 21.9994 0.0000 0.0000 0.0000 -14.8455 12.0454 26.1211 1.4202 7.5366 21.3151 -0.3102 15.4559 7.1100 3.3433 -11.2310 -33.0630 0.0000 0.0000 0.0000 8.3057 2.0965 -42.3827 -4.1332 -12.3356 36.9296 -0.0539 -5.4010 -9.1771 -1.4508 7.6137 -21.5468 -8.0097 2.2753 5.0927 -0.7696 3.0364 6.7839 3.6195 1.2486 3.8728 -13.8082 -7.3590 -1.3269 19.4030 -8.9751 -7.2584 8.1132 -4.4934 -0.2585 -0.0000 0.0000 0.0000 22.1526 15.8728 15.1787 64.8428 -57.4681 38.3984 -13.1926 -66.7447 -38.6847 0.0 0.0 0.0 -7.1250 0.0 0.0 -55.0278 60.0286 24.4216 -0.0000 0.0000 0.0000 -13.3776 10.7876 13.4209 -37.6983 -46.6455 -16.7459 -54.3516 -50.377 -39.0052 0.0 0.0 0.0 7.1250 0.0 -0.0 -9.3592 -23.7017 -12.4512
